<svg width="17" height="16" viewBox="0 0 17 16" fill="none" xmlns="http://www.w3.org/2000/svg">
<path d="M16.0435 5.23411C15.8081 5.06451 15.3513 4.83338 14.4737 4.62511C14.2111 4.56271 13.9101 4.50296 13.5671 4.44935C13.1348 4.37905 12.6334 4.31665 12.0541 4.2648L11.9727 4.25777C11.8555 3.97919 11.7339 3.69446 11.6052 3.39479C11.537 3.23397 11.4713 3.07227 11.4022 2.90091C11.3943 2.8807 11.3856 2.85961 11.3768 2.83939C11.1239 2.2093 10.8518 1.5625 10.3933 0.987768C9.88048 0.35064 9.20668 0 8.49701 0C7.78734 0 7.11442 0.351519 6.60076 0.987768C6.13873 1.56162 5.87096 2.20842 5.61807 2.83764L5.59181 2.90091C5.52356 3.07227 5.45793 3.23397 5.3888 3.39479C5.26017 3.69446 5.13941 3.97919 5.02128 4.25777L4.94077 4.2648C4.35973 4.31665 3.85832 4.37905 3.42517 4.45023C3.08215 4.50471 2.78288 4.56535 2.52123 4.62599C1.64617 4.83426 1.18589 5.06539 0.951376 5.23499C0.909993 5.26531 0.877563 5.30633 0.857533 5.35368C0.837503 5.40103 0.830621 5.45294 0.837619 5.50391L0.913748 6.07249C1.02926 6.92316 1.15264 7.92235 1.35565 8.9523C1.5053 9.74524 1.71505 10.5255 1.98307 11.2864C2.0907 11.5861 2.21059 11.8805 2.34447 12.1652C2.91715 13.3248 3.80302 14.2993 4.9009 14.9773C5.99878 15.6554 7.26442 16.0097 8.55326 15.9998C9.8421 15.9899 11.1022 15.6162 12.1896 14.9213C13.277 14.2265 14.148 13.2385 14.7029 12.0703C14.8062 11.8418 14.9016 11.608 14.9891 11.3672C15.6139 9.67995 15.8545 7.81778 16.0531 6.33876L16.1634 5.496C16.1687 5.44555 16.1604 5.39461 16.1393 5.34852C16.1182 5.30243 16.0851 5.26291 16.0435 5.23411ZM8.49176 4.12507C7.77946 4.12507 7.13104 4.13825 6.54213 4.16198C6.57363 4.08728 6.60601 4.01259 6.63926 3.93525C6.71364 3.75949 6.7854 3.58373 6.85453 3.40797C6.99848 3.02503 7.16714 2.65192 7.35943 2.29102C7.44693 2.13429 7.54702 1.98498 7.6587 1.8446C7.80221 1.66884 8.10236 1.36565 8.49176 1.36565C8.88116 1.36565 9.18131 1.66532 9.32569 1.8446C9.43737 1.98498 9.53746 2.13429 9.62496 2.29102C9.8169 2.6521 9.98555 3.02519 10.1299 3.40797C10.199 3.58373 10.2699 3.75949 10.3451 3.93525C10.3784 4.01259 10.4099 4.08728 10.4423 4.16198C9.85335 4.13825 9.20493 4.12507 8.49176 4.12507Z" fill="white"/>
</svg>
